<?xml version="1.0" standalone="no"?>
<!DOCTYPE svg PUBLIC "-//W3C//DTD SVG 20010904//EN"
 "http://www.w3.org/TR/2001/REC-SVG-20010904/DTD/svg10.dtd">
<svg version="1.0" xmlns="http://www.w3.org/2000/svg"
 width="180.000000pt" height="180.000000pt" viewBox="0 0 180.000000 180.000000"
 preserveAspectRatio="xMidYMid meet">

<g transform="translate(0.000000,180.000000) scale(0.100000,-0.100000)"
fill="#000000" stroke="none">
<path d="M795 1599 c-279 -43 -511 -253 -582 -529 -22 -86 -22 -254 0 -340 65
-250 267 -452 517 -517 86 -22 254 -22 340 0 199 52 372 191 461 372 54 112
72 189 72 315 0 126 -18 203 -72 315 -88 178 -263 321 -454 369 -77 20 -208
27 -282 15z m226 -285 c113 -33 211 -121 273 -244 18 -38 37 -91 41 -119 l7
-50 59 -3 60 -3 -127 -142 c-70 -79 -130 -143 -134 -143 -4 0 -65 64 -135 143
l-127 142 67 3 68 3 -6 49 c-8 68 -31 113 -93 180 -63 67 -149 116 -237 134
-56 12 -60 14 -40 24 76 41 231 53 324 26z m-286 -266 l127 -143 -67 -3 -68
-3 6 -50 c17 -139 165 -279 331 -313 55 -11 59 -14 39 -24 -41 -22 -137 -42
-203 -42 -125 0 -230 47 -315 142 -56 62 -111 171 -120 237 l-7 50 -59 3 -60
3 127 143 c70 78 130 142 134 142 4 0 65 -64 135 -142z"/>
</g>
</svg>
